<?xml version="1.0" standalone="no"?>
<!DOCTYPE svg PUBLIC "-//W3C//DTD SVG 20010904//EN"
 "http://www.w3.org/TR/2001/REC-SVG-20010904/DTD/svg10.dtd">
<svg version="1.0" xmlns="http://www.w3.org/2000/svg"
 width="512.000000pt" height="512.000000pt" viewBox="0 0 512.000000 512.000000"
 preserveAspectRatio="xMidYMid meet">

<g transform="translate(0.000000,512.000000) scale(0.100000,-0.100000)"
fill="#000000" stroke="none">
<path d="M1736 4938 c-70 -41 -81 -71 -84 -245 l-4 -152 -206 -3 c-195 -3
-209 -4 -243 -26 -77 -48 -73 -17 -79 -582 l-5 -505 -422 -1107 c-328 -857
-423 -1116 -423 -1151 0 -58 32 -105 90 -134 43 -23 51 -23 402 -23 l357 0 3
-268 3 -269 27 -35 c56 -74 -86 -69 1854 -66 l1741 3 36 28 c69 53 64 -113 70
2032 6 2129 9 2002 -52 2057 -45 41 -89 48 -293 48 l-187 0 -3 159 c-3 174 -7
187 -72 235 -39 29 -133 29 -172 0 -65 -48 -69 -61 -72 -235 l-3 -159 -424 0
-423 0 -4 153 c-3 139 -5 155 -27 190 -31 51 -91 81 -149 74 -50 -5 -87 -29
-119 -77 -21 -31 -23 -44 -23 -186 l0 -154 -430 0 -430 0 0 154 c0 142 -2 155
-22 186 -53 77 -139 100 -212 58z m2700 -1750 c-13 -35 -169 -443 -346 -908
-177 -465 -331 -869 -342 -897 l-19 -53 -288 0 c-282 0 -289 0 -321 -22 -50
-34 -72 -71 -77 -125 -5 -65 26 -120 87 -150 43 -23 51 -23 390 -23 313 0 349
2 385 19 22 10 48 27 58 38 10 12 141 344 292 739 l274 719 1 -912 0 -913
-1545 0 -1545 0 0 155 0 155 465 0 c369 0 472 3 498 14 47 19 94 77 102 125 9
53 -25 126 -74 158 l-34 23 -551 1 c-303 0 -694 0 -870 -1 -304 -1 -318 0
-312 17 4 10 165 432 358 938 193 506 354 930 359 943 l9 22 1534 0 1535 0
-23 -62z"/>
</g>
</svg>
